<?xml version="1.0" encoding="utf-8"?>
<!-- Generator: Adobe Illustrator 19.0.0, SVG Export Plug-In . SVG Version: 6.00 Build 0)  -->
<svg version="1.0" id="Capa_1"
	 xmlns="http://www.w3.org/2000/svg" xmlns:xlink="http://www.w3.org/1999/xlink" x="0px" y="0px" width="56.2732px"
	 height="164.718px" viewBox="0 0 56.2732 164.718" style="enable-background:new 0 0 56.2732 164.718;" xml:space="preserve">
<style type="text/css">
	.st0{fill-rule:evenodd;clip-rule:evenodd;fill:#E62449;}
	.st1{fill-rule:evenodd;clip-rule:evenodd;fill:#1F931B;}
</style>
<metadata>
	<sfw>
		<slices></slices>
		<sliceSourceBounds  height="164.718" width="56.2732" bottomLeftOrigin="true" y="-502.8201" x="270.274"></sliceSourceBounds>
	</sfw>
</metadata>
<path class="st0" d="M30.39,16.339l0.106-0.414c0.515-2.027,0.699-3.711,0.601-5.304l-0.031-0.457l-0.781-0.114
	c-1.856-0.269-3.891-0.5-5.563-0.168L23.031,0l-3.614,1.707l0.719,8.761c-2.008,0.489-4.015,1.5239-5.801,2.446l-0.832,0.429
	l-0.129,2.782l0.567-0.012c0.613-0.016,1.226-0.039,1.844-0.063c1.894-0.07,3.882-0.117,5.484-0.007
	c0.043,0.695,0.117,1.546,0.199,2.503c0.442,5.165,1.258,14.727-1.152,17.629c-0.309,0.094-0.641,0.141-0.945,0.141
	c-0.411,0-1.399-0.094-1.731-0.914c-1.043-2.586-3.211-4.383-5.273-4.383c-1.008,0-1.899,0.453-2.512,1.277
	c-0.774,1.0471-1.488,3.196-0.508,7.457c0.363,2.075,0.973,4.426,1.563,6.704c0.832,3.191,1.863,7.168,1.281,7.91
	c-0.078,0-0.313-0.035-0.781-0.3359l-4.063-4.363c-2.637-2.286-4.691-2.567-6.008-0.993c-1.39,1.672-1.437,4.938-1.273,6.418
	l1.14,13.254c0.208,6.344,0.426,12.676,0.645,19.008c0.859,24.527,1.754,43.211,1.406,68.543c-1.051,2.656-1.051,5.043,0,6.734
	c0.809,1.3051,2.207,2.0861,3.742,2.0861c2.153,0,4.489-1.55,4.844-4.98c2.348-12.981,0.977-21.32-0.336-35.836
	c-0.234-2.649-0.476-5.301-0.695-7.945c-1.113-13.481-1.301-26.539-1.484-39.176l-0.039-2.617c-0.036-2.399,0.292-2.946,0.433-3.075
	c0.582,0,2.078,2.043,3.063,3.391c0.304,0.414,1.273,2.324,2.07,3.469c2.195,3.164,3.035,4.367,4.75,4.367
	c1.34,0,2.269-1.59,2.66-2.668c1.098-3.695,0.875-13.59-0.48-21.6089c-0.508-3-1.254-5.856-1.86-8.153
	c-0.609-2.328-1.367-5.226-0.972-5.64c0.058,0,0.168,0.015,0.355,0.09c0.43,0.167,0.848,0.2531,1.246,0.2531
	c4.848,0,5.485-11.906,5.508-12.449c-0.082-4.668-0.254-10.1719-0.887-15.851L30.39,16.339z"/>
<path class="st1" d="M25.265,104.152c-0.434-2.234-0.973-5.016-1.34-9.606C23.585,91.277,20.914,89,18.738,89
	c-0.84,0-1.559,0.347-2.024,0.988c-0.496,0.672-0.953,2.012-0.351,4.547l0.086,0.187c2.511,3.699,2.453,8.266,2.386,13.09
	c-0.019,1.707-0.046,3.465,0.059,5.176c0.141,1.859,2.094,1.859,2.836,1.859c0.418,0,0.871-0.027,1.32-0.051
	c0.875-0.05,1.762-0.082,2.278,0.036l0.593,0.132l0.039-0.644c0.184-3.0671,0.094-5.6091-0.296-8.008
	C25.542,105.613,25.41,104.914,25.265,104.152z"/>
<path class="st1" d="M36.292,88.718c-0.675-0.058-1.593-0.6951-2.406-1.254c-0.933-0.644-1.816-1.246-2.586-1.246
	c-0.379,0-0.715,0.1489-0.965,0.426c-0.496,0.547-0.687,1.551-0.621,3.266l2.117,7.554c-0.074,1.282-0.023,2.114,0.036,3.079
	c0.078,1.289,0.179,2.894,0.031,6.316c-0.332,3.5551,1.035,6.348,2.433,6.691c0.668,0.2859,2.012,0.493,3.208,0.493
	c1.855,0,2.308-0.493,2.453-0.653c0.199-0.211,0.297-0.476,0.293-0.707l0.347-5.531l-0.941-12.949
	C39.73,92.855,39.816,89.7109,36.292,88.718z"/>
<path class="st1" d="M56.167,107.574c-0.086-1.02-0.445-1.653-0.789-2.254c-0.406-0.707-0.785-1.375-0.859-2.8051
	c-0.215-4.133-0.984-7.961-1.707-11.152c-1.141-5.246-2.133-7.836-3.313-8.621c-0.3-0.278-0.609-0.426-0.918-0.426
	c-0.503,0-1.175,0.359-1.535,2.059c-0.004,0.027-0.492,2.55,0.133,3.429c0.746,3.9141,1.274,6.528,1.586,7.832
	c-0.019,0.172-0.031,0.524,0.035,1.489c-0.011,4.156,0.051,7.605,0.137,11.972l0.016,0.223c-0.207,1.293,0.093,2.5159,0.832,3.437
	c0.73,0.914,1.824,1.4611,2.918,1.4611c1.445,0,2.582-0.9451,2.941-2.406C56.246,110.312,56.406,108.9919,56.167,107.574z"/>
<path class="st1" d="M31.414,68.851c0.14,0.266,0.003,0.707-0.153,1.227c-0.301,0.988-0.765,2.488,0.809,3.73
	c1.078,0.985,2.629,1.594,4.043,1.594c0.394,0,0.773-0.047,1.121-0.141l0.285-0.07l0.094-0.297c0.652-2.152-0.086-4.371-0.672-6.152
	l-0.18-0.531c-0.742-3.75-0.836-6.528-0.93-9.2109c-0.046-1.364-0.089-2.77-0.226-4.2891l-0.016-0.196l-0.129-0.144
	c-1.632-1.789-3.437-2.7-5.675-2.879l-0.11-0.008l-0.097,0.035c-1.922,0.688-3.965,2.262-3.442,4.387
	c0.172,1.015,0.567,1.594,1.07,2.3279c0.875,1.289,2.34,3.434,4.153,10.48L31.414,68.851z"/>
<g id="XMLID_14_">
</g>
<g id="XMLID_15_">
</g>
<g id="XMLID_16_">
</g>
<g id="XMLID_17_">
</g>
<g id="XMLID_18_">
</g>
<g id="XMLID_19_">
</g>
</svg>
